<svg width="120" height="121" viewBox="0 0 120 121" fill="none" xmlns="http://www.w3.org/2000/svg">
<g clip-path="url(#clip0_5112_8522)">
<path d="M104 48.5H16C14.8954 48.5 14 49.3954 14 50.5V70.5C14 71.6046 14.8954 72.5 16 72.5H104C105.105 72.5 106 71.6046 106 70.5V50.5C106 49.3954 105.105 48.5 104 48.5Z" fill="#2B2C6E"/>
<rect x="14" y="26.5" width="8" height="8" rx="1" fill="#2B2C6E"/>
<rect x="98" y="26.5" width="8" height="8" rx="1" fill="#2B2C6E"/>
<rect x="86" y="26.5" width="8" height="8" rx="1" fill="#2B2C6E"/>
<rect x="74" y="26.5" width="8" height="8" rx="1" fill="#2B2C6E"/>
<rect x="62" y="26.5" width="8" height="8" rx="1" fill="#2B2C6E"/>
<rect x="50" y="26.5" width="8" height="8" rx="1" fill="#2B2C6E"/>
<rect x="38" y="26.5" width="8" height="8" rx="1" fill="#2B2C6E"/>
<rect x="26" y="26.5" width="8" height="8" rx="1" fill="#2B2C6E"/>
<rect x="14" y="86.5" width="8" height="8" rx="1" fill="#2B2C6E"/>
<rect x="98" y="86.5" width="8" height="8" rx="1" fill="#2B2C6E"/>
<rect x="86" y="86.5" width="8" height="8" rx="1" fill="#2B2C6E"/>
<rect x="74" y="86.5" width="8" height="8" rx="1" fill="#2B2C6E"/>
<rect x="62" y="86.5" width="8" height="8" rx="1" fill="#2B2C6E"/>
<rect x="50" y="86.5" width="8" height="8" rx="1" fill="#2B2C6E"/>
<rect x="38" y="86.5" width="8" height="8" rx="1" fill="#2B2C6E"/>
<rect x="26" y="86.5" width="8" height="8" rx="1" fill="#2B2C6E"/>
</g>
<defs>
<clipPath id="clip0_5112_8522">
<rect width="120" height="120" fill="white" transform="translate(0 0.5)"/>
</clipPath>
</defs>
</svg>
